<svg width="52" height="55" viewBox="0 0 52 55" xmlns="http://www.w3.org/2000/svg" xmlns:xlink="http://www.w3.org/1999/xlink">
    <defs>
        <path id="vjy6laudpa" d="M-.112.215h4v14h-4z"/>
    </defs>
    <g fill="none" fill-rule="evenodd">
        <path fill="#C0DFF2" d="m21.315 28.072-4.69-10.267L1 37.65l25.005.69z"/>
        <path d="m12.89 22.446-4.148 5.216c.009.48.03.967.071 1.46.21 2.545.925 5.503 1.693 8.113l4.157.172c-.425-1.43-.894-3.102-1.393-5.038-.964-3.737-.812-7.25-.38-9.923M17.454 38.325l4.189.09c-.6-1.947-1.394-4.765-2.275-8.555-.511-2.197-.655-4.324-.593-6.264l-2.506-5.585-.63.802c-.486 2.125-.885 4.865-.709 7.78.232 3.826 1.52 8.544 2.524 11.732M2.691 37.55l4.291.139c-.154-.596-.311-1.216-.471-1.867a24.058 24.058 0 0 1-.66-4.531l-3.525 4.462c.11.596.23 1.197.365 1.797" fill="#0168A6"/>
        <path d="M26.017 37.77c-1.634.797-4.93-3.029-7.364-8.543-2.433-5.515-3.08-10.631-1.447-11.427 1.635-.796 4.931 3.03 7.364 8.544 2.433 5.515 3.08 10.63 1.447 11.427" fill="#F8F2C6"/>
        <path d="M26.017 37.77c-1.634.797-4.93-3.029-7.364-8.543-2.433-5.515-3.08-10.631-1.447-11.427 1.635-.796 4.931 3.03 7.364 8.544 2.433 5.515 3.08 10.63 1.447 11.427" fill="#0168A6"/>
        <path d="M18.23 29.49c1.604 3.578 3.575 6.44 5.196 7.762.898-1.255.24-5.212-1.663-9.459-1.904-4.247-4.397-7.322-5.904-7.423-.072 2.135.767 5.54 2.371 9.12" fill="#FFF"/>
        <path d="M19.917 20.854c1.603-1.917 4.767-6.314 2.662-8.951-.53-.665-3.168-2.203-3.75-.795-.605 1.466 1.077 2.369 2.437 2.076 3.206-.69 2.704-5.391 1.466-7.474-.224-.376-1.844-.758-1.517-.209.855 1.439 1.018 2.73.706 4.325a5.025 5.025 0 0 1-.625 1.41c-1.24.815-1.224 1.143.045.986 1.253 2.342-1.625 6.323-2.947 7.904-.327.392 1.247 1.058 1.523.728" fill="#5E9DC3"/>
        <path d="M23.146 23.572a40.136 40.136 0 0 1 2.92-4.322c.422-.546 4.87-5.845 5.568-2.476-.535 1.437-.361 1.23.522-.62.67-1.032 1.791-1.706 2.83-2.306 1.582-.913 3.545-1.265 5.306-1.67.993-.23-.125-1.33-.84-1.165-3.979.916-7.907 2.111-9.692 6.114-.778 1.744 2.065 2.428 3.047 1.302 1.936-2.22-1.382-3.906-3.147-3.905-3.58.004-6.607 5.955-8.086 8.491-.376.644 1.175 1.236 1.572.557" fill="#C0DFF2"/>
        <path d="M23.822 27.328c2.468 1.183 5.502 1.564 8.253.77 2.004-.578 4.867-2.779 2.46-4.576-.242-.18-.804-.405-1.115-.226-1.866 1.075-.142 2.636.974 3.372 1.992 1.314 4.544 1.134 6.853.908.907-.089-.42-.961-.903-.914l-.881.086c-2.081.443-3.695-.427-4.84-2.61l-1.114-.225c2.179 1.628-2.558 3.32-3.324 3.463-1.952.365-3.924.199-5.68-.643-.673-.322-1.686.114-.683.595" fill="#5E9DC3"/>
        <g transform="rotate(120 10.465 29.511)">
            <mask id="qogg67zmwb" fill="#fff">
                <use xlink:href="#vjy6laudpa"/>
            </mask>
            <path d="M2.902 12.605C1.713 11.725 1.045 10.65.9 9.378.831 7.175 1.547 6.4 3.046 7.053l.351-.64C.651 6.097 2.439 2.85 3.263 1.67c.264-.38-.303-1.888-.69-1.332C1.29 2.175-.558 7.53 3.53 8.003c.371.043.372-.42.351-.64C3.678 5.212.674 4.277.043 6.887c-.592 2.452.538 5.878 2.992 7.309.366.213.356-1.305-.133-1.59" fill="#FFF" mask="url(#qogg67zmwb)"/>
        </g>
        <path d="M26.97 34.519c2.546 1.028 4.907 2.509 5.696 5.287.165.582 1.744.906 1.573.302-.962-3.389-3.857-5.192-6.968-6.447-.928-.375-1.216.489-.302.858" fill="#C0DFF2"/>
    </g>
</svg>
