<svg xmlns="http://www.w3.org/2000/svg" width="17.7" height="20.331" viewBox="0 0 17.7 20.331"><defs><style>.a{fill:#333;}</style></defs><g transform="translate(0 0)"><path class="a" d="M143.6,37.448a1.373,1.373,0,0,1-.466-.084c-1.3-.466-5.7-2.311-7.344-6.217-1.221-2.908-1.09-7.671-.932-9.581,0-.83.811-1.137,1.184-1.277,1.594-.624,5.592-2.256,6.925-3a1.4,1.4,0,0,1,1.342,0c1.361.746,5.3,2.367,6.888,2.992a1.565,1.565,0,0,1,1.193,1.277h0c.112,1.911.242,6.673-.979,9.581-1.64,3.905-6.012,5.741-7.307,6.217A1.329,1.329,0,0,1,143.6,37.448Zm0-19.4a.506.506,0,0,0-.224.056c-1.417.774-5.368,2.386-7.028,3.076-.494.186-.6.317-.606.466-.1,1.864-.233,6.44.932,9.171,1.491,3.551,5.592,5.257,6.794,5.695a.412.412,0,0,0,.3,0c1.212-.438,5.275-2.144,6.767-5.695,1.137-2.731,1.016-7.326.932-9.171,0-.149-.112-.27-.6-.466-1.678-.662-5.592-2.274-7-3.048A.5.5,0,0,0,143.6,18.053Z" transform="translate(-134.756 -17.117)"/></g><g transform="translate(5.618 7.322)"><path class="a" d="M143.076,30.573h0a.473.473,0,0,1-.336-.186L140.876,27.9a.467.467,0,0,1,.093-.652.475.475,0,0,1,.652.093l1.547,2.069,4.567-4.3a.466.466,0,0,1,.659,0l0,0a.456.456,0,0,1,.007.646l-.007.007-4.977,4.66A.474.474,0,0,1,143.076,30.573Z" transform="translate(-140.783 -24.973)"/></g></svg>