<svg id="Group_4620" data-name="Group 4620" xmlns="http://www.w3.org/2000/svg" width="30" height="30" viewBox="0 0 30 30">
  <path id="Path_39-2" data-name="Path 39-2" d="M790.255,817.4a22.928,22.928,0,0,0,1.2-3.471,18.881,18.881,0,0,0-4.666,1.173,19.142,19.142,0,0,1-10.8,10.8,18.929,18.929,0,0,0-1.172,4.667,23.022,23.022,0,0,0,3.472-1.2A15.864,15.864,0,0,1,790.255,817.4Z" transform="translate(-766.419 -805.538)" fill="#040505"/>
  <path id="Path_36-2" data-name="Path 36-2" d="M741.24,876.913a22.993,22.993,0,0,1,.664-4.159,18.654,18.654,0,0,1-2.85.131,2.045,2.045,0,0,0-2.121,1.967c0,.023,0,.047,0,.07h0a2.039,2.039,0,0,0,1.964,2.04q.371.012.743.013C740.177,876.975,740.709,876.95,741.24,876.913Z" transform="translate(-736.914 -851.262)" fill="#1db8dc"/>
  <path id="Path_38-2" data-name="Path 38-2" d="M833.786,778.749a19.135,19.135,0,0,1-.139,2.266,23.027,23.027,0,0,1,4.158-.665c.036-.53.062-1.061.062-1.6q0-.372-.014-.743a2.039,2.039,0,0,0-2.039-1.963h0a2.048,2.048,0,0,0-2.039,2.057q0,.037,0,.073Q833.786,778.46,833.786,778.749Z" transform="translate(-812.151 -776.043)" fill="#1db8dc"/>
  <path id="Path_40-2" data-name="Path 40-2" d="M790.255,817.4a22.928,22.928,0,0,0,1.2-3.471,18.881,18.881,0,0,0-4.666,1.173,19.142,19.142,0,0,1-10.8,10.8,18.929,18.929,0,0,0-1.172,4.667,23.022,23.022,0,0,0,3.472-1.2A15.864,15.864,0,0,1,790.255,817.4Z" transform="translate(-766.419 -805.538)" fill="#1db8dc"/>
  <path id="Path_43-2" data-name="Path 43-2" d="M760.01,890.658a19.158,19.158,0,0,1,.139-2.266,23.007,23.007,0,0,1-4.159.665c-.037.53-.062,1.061-.062,1.6q0,.372.014.743a2.039,2.039,0,0,0,2.04,1.964h0a2.048,2.048,0,0,0,2.039-2.057c0-.024,0-.048,0-.072Q760.01,890.947,760.01,890.658Z" transform="translate(-751.667 -863.405)" fill="#1aa94c"/>
  <path id="Path_45-2" data-name="Path 45-2" d="M849.946,795.1a23.012,23.012,0,0,1-.665,4.159,18.659,18.659,0,0,1,2.85-.131,2.046,2.046,0,0,0,2.121-1.968c0-.023,0-.046,0-.069h0a2.039,2.039,0,0,0-1.964-2.039q-.372-.013-.744-.013C851.008,795.043,850.476,795.068,849.946,795.1Z" transform="translate(-824.292 -790.797)" fill="#1aa94c"/>
  <path id="Path_46-2" data-name="Path 46-2" d="M774.645,802.964a18.913,18.913,0,0,0,1.172-4.667,23.052,23.052,0,0,0-3.472,1.2,15.865,15.865,0,0,1-11.965,11.965,22.832,22.832,0,0,0-1.2,3.471,18.9,18.9,0,0,0,4.666-1.173A19.141,19.141,0,0,1,774.645,802.964Z" transform="translate(-754.239 -793.367)" fill="#1aa94c"/>
  <path id="Path_47-2" data-name="Path 47-2" d="M756.871,868.678a23.006,23.006,0,0,0-.665,4.159,23.01,23.01,0,0,0,4.159-.665,18.914,18.914,0,0,1,1.172-4.667A18.863,18.863,0,0,1,756.871,868.678Z" transform="translate(-751.882 -847.185)" fill="#040505"/>
  <path id="Path_48-2" data-name="Path 48-2" d="M756.871,868.678a23.006,23.006,0,0,0-.665,4.159,23.01,23.01,0,0,0,4.159-.665,18.914,18.914,0,0,1,1.172-4.667A18.863,18.863,0,0,1,756.871,868.678Z" transform="translate(-751.882 -847.185)" fill="#38509e"/>
  <path id="Path_49-2" data-name="Path 49-2" d="M833.059,799.471a23,23,0,0,0,.664-4.159,23,23,0,0,0-4.158.665,18.892,18.892,0,0,1-1.172,4.667A18.882,18.882,0,0,1,833.059,799.471Z" transform="translate(-808.07 -791.007)" fill="#040505"/>
  <path id="Path_50-2" data-name="Path 50-2" d="M833.059,799.471a23,23,0,0,0,.664-4.159,23,23,0,0,0-4.158.665,18.892,18.892,0,0,1-1.172,4.667A18.882,18.882,0,0,1,833.059,799.471Z" transform="translate(-808.07 -791.007)" fill="#38509e"/>
  <path id="Path_51-2" data-name="Path 51-2" d="M764.561,815.635a15.865,15.865,0,0,0,11.965-11.965A23.26,23.26,0,0,0,764.561,815.635Z" transform="translate(-758.415 -797.537)" fill="#38509e"/>
  <path id="Path_52-2" data-name="Path 52-2" d="M788.984,840.059a15.162,15.162,0,0,0-.372,4.262,2.033,2.033,0,0,0,2.037,1.913h0a2.038,2.038,0,0,0,2.038-2.037c0-.036,0-.072,0-.108a11.705,11.705,0,0,1,12.3-12.295,2.038,2.038,0,0,0,2.14-1.929c0-.035,0-.071,0-.106h0a2.044,2.044,0,0,0-1.939-2.039,15.151,15.151,0,0,0-4.236.374A23.258,23.258,0,0,1,788.984,840.059Z" transform="translate(-777.161 -816.273)" fill="#1aa94c"/>
  <path id="Path_53-2" data-name="Path 53-2" d="M790.356,841.429a23.256,23.256,0,0,0,11.964-11.965A15.862,15.862,0,0,0,790.356,841.429Z" transform="translate(-778.488 -817.604)" fill="#38509e"/>
  <path id="Path_52-3" data-name="Path 52-3" d="M754.994,782.27a15.162,15.162,0,0,0,.372-4.262,2.035,2.035,0,0,0-2.037-1.913h0a2.037,2.037,0,0,0-2.036,2.039q0,.053,0,.107A11.708,11.708,0,0,1,739,790.534a2.037,2.037,0,0,0-2.14,1.929c0,.036,0,.071,0,.107h0a2.044,2.044,0,0,0,1.939,2.039,15.157,15.157,0,0,0,4.236-.374A23.257,23.257,0,0,1,754.994,782.27Z" transform="translate(-736.855 -776.083)" fill="#1db8dc"/>
  <path id="Path_131" data-name="Path 131" d="M748.063,777.976q-.012-.125-.027-.249a2.039,2.039,0,0,0-1.513-1.622l-.011,0c-.048-.012-.1-.022-.147-.031l-.035-.005c-.043-.006-.086-.012-.13-.016s-.07,0-.1,0-.042,0-.064,0h-.006a2.038,2.038,0,0,0-2.038,2.038h0c0,.052,0,.1.007.156,0,0,0,.006,0,.009a4.194,4.194,0,0,1-.109,1.589,4.292,4.292,0,0,1-3.063,3.064,4.2,4.2,0,0,1-1.073.141q-.2,0-.408-.019l-.006,0-.065-.007c-.009,0-.019,0-.028,0s-.039,0-.058,0-.062,0-.093,0l-.053,0c-.03,0-.06,0-.089,0-.047,0-.093.008-.139.015-.022,0-.042,0-.063.006l-.057.012-.019,0a2.037,2.037,0,0,0-1.574,1.574l0,.019c0,.019-.009.037-.012.057s0,.04-.006.061q-.011.074-.015.149c0,.029,0,.057,0,.086s0,.033,0,.05c0,.038,0,.074.006.112s0,.05,0,.074a2.113,2.113,0,0,0,.031.221v0a1.98,1.98,0,0,0,.058.217c.007.022.016.044.024.065.017.048.036.1.057.142.011.025.022.049.035.073l.067.125c.014.022.027.046.042.069.027.042.056.083.086.123.014.018.027.037.041.055a2.059,2.059,0,0,0,.307.307c.018.015.037.028.056.042.04.03.08.059.122.086l.069.042q.061.036.125.067l.073.035c.046.021.093.039.141.057l.066.024a1.95,1.95,0,0,0,.216.058h.006a2.1,2.1,0,0,0,.22.031l.026,0-.009,0,.057,0h-.048c.008,0,.015,0,.024.005a8.265,8.265,0,0,0,3.352-.373,8.383,8.383,0,0,0,5.382-5.377A8.261,8.261,0,0,0,748.063,777.976Z" transform="translate(-737.006 -776.043)" fill="#1db8dc"/>
  <path id="Path_131-2" data-name="Path 131" d="M11.013,1.933q-.012-.125-.027-.249A2.039,2.039,0,0,0,9.473.062l-.011,0c-.048-.012-.1-.022-.147-.031l-.035,0C9.236.017,9.193.011,9.149.008s-.07,0-.1,0S9,0,8.981,0H8.974A2.038,2.038,0,0,0,6.936,2.038h0c0,.052,0,.1.007.156,0,0,0,.006,0,.009a4.193,4.193,0,0,1-.109,1.589A4.292,4.292,0,0,1,3.768,6.857,4.208,4.208,0,0,1,2.7,7q-.2,0-.408-.019l-.006,0-.065-.007c-.009,0-.019,0-.028,0s-.039,0-.058,0-.062,0-.093,0l-.053,0c-.03,0-.06,0-.089,0-.047,0-.093.008-.139.015-.022,0-.042,0-.063.006s-.038.008-.057.012l-.019,0A2.037,2.037,0,0,0,.044,8.585l0,.019c0,.019-.009.037-.012.057s0,.04-.006.061q-.011.074-.015.149c0,.029,0,.057,0,.086S0,8.988,0,9c0,.038,0,.074.006.112s0,.05,0,.074a2.106,2.106,0,0,0,.031.221v0A1.975,1.975,0,0,0,.1,9.633c.007.022.016.044.024.065.017.048.036.1.057.142.011.025.022.048.035.073l.067.125c.014.022.027.046.042.069.027.042.056.083.086.123.014.018.027.037.041.055a2.062,2.062,0,0,0,.307.307c.018.015.037.028.056.042.04.03.08.059.122.086L1,10.761q.061.036.125.067l.073.035c.046.021.093.039.141.057l.066.024A1.961,1.961,0,0,0,1.626,11h.006a2.078,2.078,0,0,0,.22.031l.026,0-.009,0,.057,0H1.877c.008,0,.015,0,.024.005a8.264,8.264,0,0,0,3.352-.373,8.383,8.383,0,0,0,5.382-5.377A8.262,8.262,0,0,0,11.013,1.933Z" transform="translate(30 30) rotate(180)" fill="#1aa94c"/>
</svg>
