<svg width="56" height="56" viewBox="0 0 56 56" xmlns="http://www.w3.org/2000/svg">
    <g fill="none" fill-rule="evenodd">
        <path d="M45.797 14.414H39.75v-2.91c0-.825-.561-1.504-1.242-1.504H17.49c-.681 0-1.242.68-1.242 1.504v2.91h-6.006c-.68 0-1.241.68-1.241 1.504v2.716c0 6.403 3.564 12.03 8.649 13.68l2.002.63c.36.63.68 1.116 1.04 1.504 1.322 1.649 2.964 2.716 4.846 3.25v4.753h-2.563c-.56 0-1.04.437-1.161 1.068l-1.001 3.977c-.2.728.28 1.504.92 1.504h12.533c.64 0 1.121-.776.921-1.504l-.961-3.977c-.16-.631-.64-1.068-1.161-1.068H30.5v-4.753a9.08 9.08 0 0 0 4.845-3.25c.36-.437.681-.922 1.041-1.553l1.962-.63c5.125-1.65 8.649-7.277 8.649-13.68V15.87c.04-.776-.52-1.455-1.201-1.455zm-33.033 2.91h3.523c.04 2.551.24 7.172 1.121 11.93-2.722-2.068-4.564-6.689-4.644-11.93zm25.866 12c.88-4.897 1.08-9.656 1.12-11.932h3.524c-.08 5.173-1.922 9.794-4.644 11.932z" fill="#87C4FF"/>
        <text font-family="Mulish-Black, Mulish" font-size="12" font-weight="700" fill="#FFF" fill-opacity=".9">
                                <tspan x="24" y="27">2</tspan>
                            </text>
    </g>
</svg>
