<svg xmlns="http://www.w3.org/2000/svg" width="22" height="22" viewBox="0 0 22 22"><defs><style>.a{fill:#333;}</style></defs><g transform="translate(-812.358 -25)"><g transform="translate(807.358 20)"><path class="a" d="M39.619,37.9a.3.3,0,0,0-.259.3V38.8a.3.3,0,0,0,.259.3.3.3,0,0,0,.335-.3V38.2A.3.3,0,0,0,39.619,37.9Z" transform="translate(-25.967 -24.867)"/><path class="a" d="M39.619,51.5a.3.3,0,0,0-.259.3v.579a.3.3,0,0,0,.259.3.3.3,0,0,0,.335-.3V51.8A.3.3,0,0,0,39.619,51.5Z" transform="translate(-25.967 -35.148)"/><path class="a" d="M39.619,44.729a.3.3,0,0,0-.259.3v.579a.3.3,0,0,0,.259.3.3.3,0,0,0,.335-.3v-.579A.3.3,0,0,0,39.619,44.729Z" transform="translate(-25.967 -30.03)"/><path class="a" d="M39.619,31.187a.3.3,0,0,0-.259.3v.579a.3.3,0,0,0,.259.3.3.3,0,0,0,.335-.3v-.579A.3.3,0,0,0,39.619,31.187Z" transform="translate(-25.967 -19.793)"/><path class="a" d="M45.959,58.269a.3.3,0,0,0-.259.3v.579a.3.3,0,0,0,.259.3.3.3,0,0,0,.335-.3v-.579A.3.3,0,0,0,45.959,58.269Z" transform="translate(-30.759 -40.266)"/><path class="a" d="M45.959,51.5a.3.3,0,0,0-.259.3v.579a.3.3,0,0,0,.259.3.3.3,0,0,0,.335-.3V51.8A.3.3,0,0,0,45.959,51.5Z" transform="translate(-30.759 -35.148)"/><path class="a" d="M33.569,51.5a.3.3,0,0,0-.259.3v.579a.3.3,0,0,0,.259.3.3.3,0,0,0,.335-.3V51.8A.3.3,0,0,0,33.569,51.5Z" transform="translate(-21.395 -35.148)"/><path class="a" d="M39.619,58.269a.3.3,0,0,0-.259.3v.579a.3.3,0,0,0,.259.3.3.3,0,0,0,.335-.3v-.579A.3.3,0,0,0,39.619,58.269Z" transform="translate(-25.967 -40.266)"/><path class="a" d="M33.569,58.269a.3.3,0,0,0-.259.3v.579a.3.3,0,0,0,.259.3.3.3,0,0,0,.335-.3v-.579A.3.3,0,0,0,33.569,58.269Z" transform="translate(-21.395 -40.266)"/><path class="a" d="M33.569,37.9a.3.3,0,0,0-.259.3V38.8a.3.3,0,0,0,.259.3.3.3,0,0,0,.335-.3V38.2A.3.3,0,0,0,33.569,37.9Z" transform="translate(-21.395 -24.867)"/><path class="a" d="M33.569,44.729a.3.3,0,0,0-.259.3v.579a.3.3,0,0,0,.259.3.3.3,0,0,0,.335-.3v-.579A.3.3,0,0,0,33.569,44.729Z" transform="translate(-21.395 -30.03)"/><path class="a" d="M65.979,52.889a.3.3,0,0,0-.259.3v.639a.3.3,0,0,0,.335.3.3.3,0,0,0,.259-.3v-.639A.3.3,0,0,0,65.979,52.889Z" transform="translate(-45.889 -36.2)"/><path class="a" d="M60.419,52.889a.3.3,0,0,0-.259.3v.639a.3.3,0,0,0,.335.3.3.3,0,0,0,.259-.3v-.639A.3.3,0,0,0,60.419,52.889Z" transform="translate(-41.687 -36.2)"/><path class="a" d="M66.055,60.277a.3.3,0,0,0-.335.3v.639a.3.3,0,0,0,.335.3.3.3,0,0,0,.259-.3v-.639A.3.3,0,0,0,66.055,60.277Z" transform="translate(-45.889 -41.787)"/><path class="a" d="M60.495,60.277a.3.3,0,0,0-.335.3v.639a.3.3,0,0,0,.335.3.3.3,0,0,0,.259-.3v-.639A.3.3,0,0,0,60.495,60.277Z" transform="translate(-41.687 -41.787)"/><path class="a" d="M16,5A11,11,0,1,0,27,16,11,11,0,0,0,16,5Zm-.931,17.651H12.5V20.42h2.572Zm1.965,0H15.587V20.2a.3.3,0,0,0-.3-.3H12.275a.3.3,0,0,0-.3.3v2.454H10.5V11.788a.246.246,0,0,1,.073-.164,6.556,6.556,0,0,1,1.508-1.078,10.622,10.622,0,0,1,4.8-1.2.144.144,0,0,1,.147.164Zm4.464,0H17.479V16.029a.234.234,0,0,1,.237-.237h3.547a.234.234,0,0,1,.237.237v6.622Z"/><path class="a" d="M45.959,31.187a.3.3,0,0,0-.259.3v.579a.3.3,0,0,0,.259.3.3.3,0,0,0,.335-.3v-.579A.293.293,0,0,0,45.959,31.187Z" transform="translate(-30.759 -19.793)"/><path class="a" d="M45.959,37.9a.3.3,0,0,0-.259.3V38.8a.3.3,0,0,0,.259.3.3.3,0,0,0,.335-.3V38.2A.294.294,0,0,0,45.959,37.9Z" transform="translate(-30.759 -24.867)"/><path class="a" d="M45.959,44.729a.3.3,0,0,0-.259.3v.579a.3.3,0,0,0,.259.3.3.3,0,0,0,.335-.3v-.579A.294.294,0,0,0,45.959,44.729Z" transform="translate(-30.759 -30.03)"/></g></g></svg>