<svg xmlns="http://www.w3.org/2000/svg" width="18.289" height="19.671" viewBox="0 0 18.289 19.671"><defs><style>.a{fill:#333;}</style></defs><path class="a" d="M28.258,9.12a.457.457,0,0,0-.456-.436H24.489V7.408a.457.457,0,0,0-.457-.457H14.207a.457.457,0,0,0-.457.457V8.684H10.437a.457.457,0,0,0-.456.436c-.083,1.856.641,5.478,3.925,6.194.53,2.3,2.372,4.461,4.757,4.71v5.684H15.749a.457.457,0,0,0,0,.914h6.74a.457.457,0,0,0,0-.914H19.576V20.024A5.281,5.281,0,0,0,23.2,17.778a.457.457,0,0,0-.736-.541,4.253,4.253,0,0,1-3.345,1.9c-2.509,0-4.455-2.763-4.455-5.141V7.865h8.91v6.272a2.164,2.164,0,0,1-.069.67.457.457,0,0,0,.342.549.449.449,0,0,0,.14.008c.014,0,.029,0,.043,0a.475.475,0,0,0,.078-.006C27.586,14.764,28.343,11.018,28.258,9.12ZM10.9,9.6H13.75V14c0,.112,0,.225.012.339C11.3,13.566,10.94,10.706,10.9,9.6Zm13.592,4.731c0-.061,0-.124,0-.2V9.6h2.85C27.286,10.7,26.914,13.556,24.489,14.329Z" transform="translate(-9.975 -6.951)"/></svg>