<svg xmlns="http://www.w3.org/2000/svg" width="20" height="12.5" viewBox="0 0 20 12.5">
  <g id="Group_9430" data-name="Group 9430" transform="translate(-501.5 -564.789)">
    <g id="Group_8947" data-name="Group 8947" transform="translate(440.488 547.279)">
      <circle id="Ellipse_1380" data-name="Ellipse 1380" cx="2.95" cy="2.95" r="2.95" transform="translate(63.867 19.28)" fill="none" stroke="#323233" stroke-miterlimit="10" stroke-width="1"/>
      <path id="Path_7796" data-name="Path 7796" d="M64.913,21.047a5.842,5.842,0,0,1,3.7,5.435" transform="translate(4.078 3.529)" fill="none" stroke="#323233" stroke-miterlimit="10" stroke-width="1"/>
      <circle id="Ellipse_1381" data-name="Ellipse 1381" cx="2.191" cy="2.191" r="2.191" transform="translate(73.985 18.011)" fill="none" stroke="#323233" stroke-miterlimit="10" stroke-width="1"/>
      <path id="Path_7798" data-name="Path 7798" d="M69.209,19.8a4.34,4.34,0,0,1,2.746,4.037" transform="translate(8.557 2.037)" fill="none" stroke="#323233" stroke-miterlimit="10" stroke-width="1"/>
      <path id="Path_7799" data-name="Path 7799" d="M66.506,21.8a5.274,5.274,0,0,1,2.132-2.073" transform="translate(5.734 2.127)" fill="none" stroke="#323233" stroke-miterlimit="10" stroke-width="1"/>
      <path id="Path_7800" data-name="Path 7800" d="M68.61,21.047a5.842,5.842,0,0,0-3.7,5.435" transform="translate(-3.401 3.529)" fill="none" stroke="#323233" stroke-miterlimit="10" stroke-width="1"/>
    </g>
  </g>
</svg>
