<svg xmlns="http://www.w3.org/2000/svg" width="29.603" height="29.604" viewBox="0 0 29.603 29.604">
  <path id="Path_8035" data-name="Path 8035" d="M92.272,219.621H71.777a4.554,4.554,0,0,0-4.554,4.554v20.494a4.555,4.555,0,0,0,4.554,4.555H92.272a4.555,4.555,0,0,0,4.554-4.555V224.175A4.554,4.554,0,0,0,92.272,219.621Zm-4.992,7.406H84.8c-.877,0-1.059.358-1.059,1.265v2.19h3.539l-.341,3.845h-3.2v11.483H79.154V234.373H76.769v-3.892h2.385v-3.066c0-2.876,1.538-4.379,4.951-4.379h3.175Z" transform="translate(-67.223 -219.621)" fill="#a8a8a8"/>
</svg>
