<svg xmlns="http://www.w3.org/2000/svg" width="29.603" height="29.604" viewBox="0 0 29.603 29.604">
  <path id="Path_8034" data-name="Path 8034" d="M430.576,219.621H410.082a4.553,4.553,0,0,0-4.554,4.554v20.494a4.554,4.554,0,0,0,4.554,4.555h20.495a4.555,4.555,0,0,0,4.554-4.555V224.175A4.554,4.554,0,0,0,430.576,219.621Zm-14.594,23.341h-3.545V231.554h3.545Zm-1.771-12.967a2.056,2.056,0,1,1,2.054-2.056A2.056,2.056,0,0,1,414.211,229.994Zm15.051,12.967h-3.543v-5.548c0-1.324-.024-3.026-1.842-3.026-1.845,0-2.128,1.442-2.128,2.93v5.644h-3.543V231.554h3.4v1.558h.047a3.728,3.728,0,0,1,3.355-1.843c3.591,0,4.253,2.364,4.253,5.434Z" transform="translate(-405.528 -219.621)" fill="#a8a8a8"/>
</svg>
